<?xml version="1.0" encoding="utf-8"?>
<!-- Generator: Adobe Illustrator 16.0.0, SVG Export Plug-In . SVG Version: 6.00 Build 0)  -->
<!DOCTYPE svg PUBLIC "-//W3C//DTD SVG 1.1//EN" "http://www.w3.org/Graphics/SVG/1.1/DTD/svg11.dtd">
<svg version="1.1" id="Layer_1" xmlns="http://www.w3.org/2000/svg" xmlns:xlink="http://www.w3.org/1999/xlink" x="0px" y="0px"
	 width="24px" height="24px" viewBox="0 0 24 24" enable-background="new 0 0 24 24" xml:space="preserve">
<path fill="#272C33" d="M20.949,5.495H3.05c-0.762,0-1.379,0.617-1.379,1.378v11.382h0.981V6.764h18.694v11.492h0.981V6.874
	C22.328,6.112,21.711,5.495,20.949,5.495z"/>
<path fill="#272C33" d="M0.514,19.049v0.999c0,0.76,0.617,1.379,1.378,1.379h20.216c0.762,0,1.379-0.619,1.379-1.379v-0.999H0.514z
	 M5.093,20.454H3.139v-0.432h1.954V20.454z"/>
<g>
	<path fill="#FDFDFE" d="M11.954,0.774c-2.596,0-4.707,2.143-4.707,4.777c0,3.81,4.158,6.851,4.333,6.98l0.374,0.268l0.372-0.268
		c0.178-0.129,4.333-3.171,4.333-6.98C16.658,2.917,14.551,0.774,11.954,0.774z"/>
	<path fill="#FDFDFE" d="M11.951,11.176c-0.955-0.792-3.42-3.078-3.42-5.624c0-1.915,1.534-3.473,3.422-3.473
		c1.886,0,3.421,1.558,3.421,3.473C15.375,8.091,12.91,10.382,11.951,11.176z"/>
</g>
<path fill="#F15B40" d="M12.042,4.323c-1.084,0-1.968,0.883-1.968,1.967c0,1.085,0.884,1.966,1.968,1.966
	c1.083,0,1.966-0.881,1.966-1.966C14.008,5.206,13.125,4.323,12.042,4.323z M12.042,7.242c-0.526,0-0.953-0.427-0.953-0.952
	c0-0.524,0.427-0.953,0.953-0.953c0.525,0,0.952,0.429,0.952,0.953C12.994,6.815,12.567,7.242,12.042,7.242z M12.042,2.575
	c-2.049,0-3.715,1.666-3.715,3.715c0,2.962,3.281,5.327,3.42,5.428l0.295,0.208l0.293-0.208c0.14-0.101,3.419-2.466,3.419-5.428
	C15.754,4.241,14.09,2.575,12.042,2.575z M12.04,10.663C11.286,10.047,9.34,8.27,9.34,6.29c0-1.489,1.211-2.701,2.701-2.701
	c1.488,0,2.699,1.211,2.699,2.701C14.74,8.265,12.794,10.046,12.04,10.663z"/>
</svg>
