<?xml version="1.0" encoding="utf-8"?>
<!-- Generator: Adobe Illustrator 16.0.0, SVG Export Plug-In . SVG Version: 6.00 Build 0)  -->
<!DOCTYPE svg PUBLIC "-//W3C//DTD SVG 1.1//EN" "http://www.w3.org/Graphics/SVG/1.1/DTD/svg11.dtd">
<svg version="1.1" id="Layer_1" xmlns="http://www.w3.org/2000/svg" xmlns:xlink="http://www.w3.org/1999/xlink" x="0px" y="0px"
	 width="50px" height="24px" viewBox="0 0 50 24" enable-background="new 0 0 50 24" xml:space="preserve">
<path fill-rule="evenodd" clip-rule="evenodd" fill="#2B2B2B" d="M2.154,12.436c0.216-0.65,0.391-1.177,0.495-1.492
	c-0.531-0.58-0.967-0.982-1.308-1.453C1.021,9.047,1.339,8.157,1.85,8.006c2.085-0.615,4.178-1.209,6.273-1.795
	C8.456,6.118,8.814,6.12,9.158,6.062c1.114-0.188,2.067,0.075,2.631,0.893c0.385-0.16,0.653-0.347,0.937-0.375
	c1.609-0.164,3.218-0.314,4.831-0.413c0.62-0.037,1.252,0.053,1.873,0.133c0.4,0.051,0.784,0.187,0.964,0.624
	c0.033,0.08,0.178,0.109,0.224,0.189c0.135,0.235,0.336,0.484,0.334,0.728c0,0.176-0.256,0.463-0.442,0.505
	c-0.814,0.176-1.642,0.286-2.467,0.409c-0.187,0.029-0.38,0.021-0.522,0.029c-0.678,2.244-1.345,4.453-2.02,6.69
	c-0.033-0.026-0.005,0.014,0.017,0.011c0.856-0.131,1.4,0.427,1.957,0.92c0.118,0.104,0.158,0.386,0.12,0.56
	c-0.114,0.522-0.687,0.896-1.229,0.937c-0.595,0.042-1.184,0.164-1.778,0.215c-0.656,0.057-1.32,0.031-1.971,0.112
	c-0.567,0.069-1.127,0.226-1.686,0.366c-0.539,0.132-0.891-0.077-1.062-0.575c-0.153-0.441-0.314-0.896-0.356-1.356
	c-0.016-0.178,0.258-0.513,0.449-0.557c0.678-0.152,1.378-0.203,2.067-0.313c0.146-0.023,0.351-0.104,0.405-0.216
	c0.995-2.095,1.869-4.235,2.364-6.617c-0.353,0.056-0.654,0.087-0.947,0.154c-1.109,0.251-1.151,0.238-1.708-0.671
	c-1.166,0.111-2.329,0.164-3.473,0.349c-0.904,0.146-1.787,0.44-2.667,0.706C5.859,9.542,5.734,9.773,5.674,9.942
	c-0.196,0.571-0.362,1.153-0.533,1.731c-0.045,0.158-0.069,0.324-0.127,0.599c0.755-0.1,1.42-0.191,2.085-0.276
	c0.242-0.031,0.497-0.017,0.728-0.082c0.834-0.24,1.251,0.276,1.633,0.867c0.036,0.058,0.098,0.158,0.078,0.186
	c-0.347,0.462-0.622,1.169-1.076,1.318c-1.029,0.335-2.149,0.395-3.233,0.567c-0.069,0.011-0.137,0.053-0.204,0.049
	c-1.085-0.084-1.506,0.624-1.75,1.504c-0.076,0.274-0.089,0.576-0.076,0.863c0.023,0.498-0.256,1.093-0.625,1.24
	c-0.38,0.151-1.073-0.142-1.385-0.509c-0.624-0.731-0.607-1.524-0.298-2.356c0.127-0.342,0.085-0.557-0.195-0.855
	c-0.316-0.336-0.529-0.816-0.656-1.271c-0.144-0.521,0.124-0.962,0.589-1.231C1.099,12.017,1.59,11.81,2.154,12.436z"/>
<path fill-rule="evenodd" clip-rule="evenodd" fill="#2B2B2B" d="M25.009,14.252c0.612-0.297,1.075-0.784,1.289-1.385
	c0.384-1.076,0.768-2.176,0.924-3.3c0.158-1.125,0.717-2.098,0.96-3.182c0.022-0.097,0.369-0.24,0.455-0.186
	c0.542,0.336,1.12,0.654,1.555,1.105c0.674,0.704,0.663,1.311,0.207,2.193c-0.186,0.36-0.35,0.747-0.426,1.14
	c-0.173,0.887-0.216,1.804-0.441,2.674c-0.209,0.81-0.553,1.59-0.9,2.355c-0.351,0.771-0.893,1.412-1.551,1.952
	c-0.732,0.603-1.395,0.609-2.118,0.017c-0.951-0.776-1.671-1.722-2.14-2.967c-0.515,0.95-1.166,1.727-1.291,2.752
	c-0.08,0.649-0.611,0.869-1.085,0.953c-0.264,0.046-0.684-0.285-0.896-0.555c-0.595-0.758-0.827-1.682-0.985-2.616
	c-0.015-0.091,0.049-0.202,0.094-0.294c1.358-2.846,2.718-5.692,4.081-8.536c0.021-0.045,0.062-0.08,0.152-0.194
	c0.506,0.282,1.067,0.505,1.519,0.869c1.189,0.958,1.218,1.522,0.762,2.898C24.853,10.911,24.706,13.411,25.009,14.252z"/>
<path fill-rule="evenodd" clip-rule="evenodd" fill="#2B2B2B" d="M46.533,11.291c1.238,0.573,1.912,1.502,2.432,2.613
	c0.43,0.912-0.065,2.3-0.896,2.871c-1.928,1.319-4.052,1.646-6.301,1.485c-0.899-0.063-1.14-0.426-0.918-1.276
	c0.114-0.437,0.186-0.89,0.349-1.306c0.111-0.285,0.322-0.587,0.715-0.272c0.038,0.03,0.095,0.055,0.142,0.055
	c1.324-0.029,2.658,0.001,3.884-0.626c0.118-0.062,0.217-0.163,0.438-0.333c-0.479-0.218-0.871-0.418-1.28-0.576
	c-0.68-0.264-1.391-0.46-2.053-0.762c-0.709-0.326-0.897-0.762-0.753-1.527c0.103-0.535,0.251-1.06,0.386-1.616
	c-0.127,0.031-0.304,0.091-0.485,0.118c-0.316,0.047-0.637,0.124-0.951,0.105c-0.989-0.06-1.016-0.109-1.029-1.218
	c-0.007-0.589,0.059-1.304,0.697-1.702c0.1-0.062,0.196-0.147,0.305-0.171c1.944-0.409,3.884-0.864,5.888-0.831
	c0.445,0.009,1.051-0.082,1.3,0.162c0.521,0.511,0.885,1.196,1.249,1.845c0.171,0.304-0.291,1.18-0.691,1.429
	c-0.677,0.42-1.37,0.815-2.054,1.228C46.793,11.053,46.701,11.151,46.533,11.291z"/>
<path fill-rule="evenodd" clip-rule="evenodd" fill="#2B2B2B" d="M31.751,8.369c-0.285-1.271-0.276-1.529,0.091-2.244
	c0.344,0.131,0.696,0.26,1.048,0.398c0.907,0.354,1.878,0.605,2.711,1.094c1.844,1.08,3.758,2.147,4.376,4.455
	c0.24,0.901,0.09,1.706-0.543,2.433c-0.966,1.107-2.191,1.831-3.497,2.431c-1.203,0.553-2.429,1.057-3.656,1.553
	c-0.182,0.075-0.451,0.057-0.633-0.025c-0.209-0.094-0.438-0.272-0.533-0.475c-0.391-0.829-0.572-1.673-0.279-2.605
	c0.623-1.989,1.253-3.987,0.562-6.109C31.24,8.791,31.354,8.597,31.751,8.369z M33.413,9.246c0.569,1.917,0.511,3.754,0.114,5.695
	c1.411-0.571,2.688-1.128,3.829-1.947c0.193-0.138,0.329-0.356,0.489-0.538c0.249-0.28,0.189-0.533-0.076-0.762
	c-0.675-0.582-1.253-1.291-2.124-1.616C34.94,9.813,34.234,9.551,33.413,9.246z"/>
<path fill-rule="evenodd" clip-rule="evenodd" fill="#FFFFFF" d="M33.413,9.246c0.821,0.306,1.527,0.567,2.232,0.831
	c0.871,0.326,1.449,1.035,2.124,1.616c0.266,0.229,0.325,0.482,0.076,0.762c-0.16,0.182-0.296,0.4-0.489,0.538
	c-1.142,0.819-2.418,1.376-3.829,1.947C33.924,13,33.982,11.162,33.413,9.246z"/>
</svg>
