<?xml version="1.0" encoding="utf-8"?>
<!-- Generator: Adobe Illustrator 16.0.0, SVG Export Plug-In . SVG Version: 6.00 Build 0)  -->
<!DOCTYPE svg PUBLIC "-//W3C//DTD SVG 1.1//EN" "http://www.w3.org/Graphics/SVG/1.1/DTD/svg11.dtd">
<svg version="1.1" id="Layer_1" xmlns="http://www.w3.org/2000/svg" xmlns:xlink="http://www.w3.org/1999/xlink" x="0px" y="0px"
	 width="24px" height="24px" viewBox="0 0 24 24" enable-background="new 0 0 24 24" xml:space="preserve">
<path fill="#F15B40" d="M17.99,7.95c-1.08,0-1.97,0.88-1.97,1.97c0,1.08,0.88,1.97,1.97,1.97s1.97-0.88,1.97-1.97
	C19.96,8.83,19.08,7.95,17.99,7.95z M17.99,10.87c-0.53,0-0.95-0.43-0.95-0.95c0-0.52,0.43-0.95,0.95-0.95
	c0.53,0,0.95,0.43,0.95,0.95C18.95,10.44,18.52,10.87,17.99,10.87z M17.99,6.2c-2.05,0-3.71,1.67-3.71,3.71
	c0,2.96,3.28,5.33,3.42,5.43l0.29,0.21l0.29-0.21c0.14-0.1,3.42-2.47,3.42-5.43C21.71,7.87,20.04,6.2,17.99,6.2z M17.99,14.29
	c-0.75-0.62-2.7-2.39-2.7-4.37c0-1.49,1.21-2.7,2.7-2.7c1.49,0,2.7,1.21,2.7,2.7C20.69,11.89,18.75,13.67,17.99,14.29z"/>
<path fill="#272C33" d="M17.99,16.17l-0.5-0.36v4.9H6.26V2.52h11.24v3.2c0.16-0.02,0.33-0.03,0.5-0.03c0.2,0,0.39,0.02,0.58,0.04
	V1.81c0-0.74-0.61-1.35-1.35-1.35H6.52c-0.74,0-1.35,0.61-1.35,1.35v20.6c0,0.74,0.61,1.35,1.35,1.35h10.7
	c0.74,0,1.35-0.61,1.35-1.35v-6.65L17.99,16.17z M10.82,1.18h2.1c0.17,0,0.3,0.14,0.3,0.3c0,0.17-0.13,0.3-0.3,0.3h-2.1
	c-0.17,0-0.3-0.13-0.3-0.3C10.52,1.32,10.66,1.18,10.82,1.18z M13.6,22.49c0,0.19-0.15,0.34-0.34,0.34h-2.77
	c-0.19,0-0.34-0.15-0.34-0.34V21.9c0-0.19,0.15-0.34,0.34-0.34h2.77c0.19,0,0.34,0.15,0.34,0.34V22.49z"/>
</svg>
