<?xml version="1.0" encoding="utf-8"?>
<!-- Generator: Adobe Illustrator 16.0.0, SVG Export Plug-In . SVG Version: 6.00 Build 0)  -->
<!DOCTYPE svg PUBLIC "-//W3C//DTD SVG 1.1//EN" "http://www.w3.org/Graphics/SVG/1.1/DTD/svg11.dtd">
<svg version="1.1" id="Layer_1" xmlns="http://www.w3.org/2000/svg" xmlns:xlink="http://www.w3.org/1999/xlink" x="0px" y="0px"
	 width="24px" height="24px" viewBox="0 0 24 24" enable-background="new 0 0 24 24" xml:space="preserve">
<g>
	<path fill="#272C33" d="M18.23,20.97L12.85,9.11c0.43-0.2,0.73-0.64,0.73-1.14c0-0.7-0.56-1.26-1.26-1.26s-1.26,0.56-1.26,1.26
		c0,0.51,0.3,0.94,0.73,1.14L6.41,20.97c-0.09,0.2,0,0.43,0.19,0.52c0.2,0.09,0.43,0,0.52-0.2l1.04-2.28l2.09-0.51l1.68,3.55v1.51
		c0,0.22,0.18,0.39,0.39,0.39c0.22,0,0.39-0.18,0.39-0.39v-1.51l1.68-3.55l2.09,0.51l1.03,2.28c0.07,0.14,0.21,0.23,0.36,0.23
		c0.06,0,0.11-0.01,0.16-0.03C18.23,21.4,18.32,21.17,18.23,20.97z M10.68,13.47l0.1,0.33l-0.4,0.34L10.68,13.47z M8.57,18.1
		L9.3,16.5l0.61,1.28L8.57,18.1z M9.78,15.67l1.24-1.05l0.8,2.7l-1.14,0.28L9.78,15.67z M11.93,20.22l-0.9-1.9l0.9-0.22V20.22z
		 M11.93,14.91l-0.25-0.85l0.25-0.21V14.91z M11.93,12.82l-0.5,0.42l-0.26-0.87l0.76-1.67V12.82z M14.01,13.57l0.26,0.57l-0.34-0.29
		L14.01,13.57z M12.71,10.71l0.81,1.79l-0.25,0.79l-0.56-0.47V10.71z M12.71,13.85l0.3,0.26l-0.3,0.96V13.85z M12.71,20.22V18.1
		l0.9,0.22L12.71,20.22z M13.95,17.59l-1.13-0.28l0.84-2.66l1.2,1.01L13.95,17.59z M14.73,17.78l0.61-1.28l0.73,1.61L14.73,17.78z"
		/>
	<path fill="#F15B40" d="M10.1,10.58c-0.1,0-0.2-0.04-0.28-0.11c-1.38-1.38-1.38-3.62,0-5c0.67-0.67,1.56-1.04,2.5-1.04l0,0
		c0.95,0,1.83,0.37,2.5,1.04s1.04,1.56,1.04,2.5c0,0.94-0.37,1.83-1.04,2.5c-0.15,0.15-0.4,0.15-0.55,0c-0.15-0.15-0.15-0.4,0-0.56
		c0.52-0.52,0.8-1.21,0.8-1.94c0-0.73-0.29-1.42-0.8-1.94c-0.52-0.52-1.21-0.81-1.95-0.81l0,0c-0.73,0-1.43,0.29-1.95,0.81
		c-1.07,1.07-1.07,2.82,0,3.89c0.15,0.15,0.15,0.4,0,0.55C10.3,10.54,10.2,10.58,10.1,10.58z"/>
	<path fill="#F15B40" d="M8.61,12.06c-0.1,0-0.2-0.04-0.28-0.11c-1.06-1.06-1.65-2.48-1.65-3.98c0-1.5,0.59-2.92,1.65-3.98
		c2.19-2.2,5.77-2.2,7.96,0c2.19,2.19,2.19,5.77,0,7.96c-0.15,0.15-0.4,0.15-0.55,0c-0.15-0.15-0.15-0.4,0-0.55
		c1.89-1.89,1.89-4.96,0-6.85c-1.89-1.89-4.96-1.89-6.85,0C7.98,5.46,7.47,6.67,7.47,7.97c0,1.29,0.5,2.51,1.42,3.43
		c0.15,0.15,0.15,0.4,0,0.56C8.82,12.03,8.72,12.06,8.61,12.06z"/>
	<path fill="#F15B40" d="M7.13,13.55c-0.1,0-0.2-0.04-0.28-0.11c-1.46-1.46-2.26-3.4-2.26-5.46c0-2.06,0.8-4,2.26-5.46
		c1.46-1.46,3.4-2.26,5.46-2.26c0,0,0,0,0,0c2.06,0,4,0.8,5.46,2.26c1.46,1.46,2.26,3.4,2.26,5.46c0,2.06-0.8,4-2.26,5.46
		c-0.15,0.15-0.4,0.15-0.55,0c-0.15-0.15-0.15-0.4,0-0.55c1.31-1.31,2.03-3.05,2.03-4.91s-0.72-3.6-2.03-4.91
		c-2.71-2.71-7.11-2.71-9.82,0C6.1,4.37,5.38,6.11,5.38,7.97s0.72,3.6,2.03,4.91c0.15,0.15,0.15,0.4,0,0.55
		C7.33,13.51,7.23,13.55,7.13,13.55z"/>
</g>
</svg>
